<svg id="Calque_1" data-name="Calque 1" xmlns="http://www.w3.org/2000/svg" xmlns:xlink="http://www.w3.org/1999/xlink" viewBox="0 0 468.65 142.03"><defs><style>.cls-1,.cls-2{stroke:#6567ab;stroke-miterlimit:10;}.cls-1{fill:url(#Dégradé_sans_nom_35);}.cls-2,.cls-3{fill:#6567ab;}.cls-4{fill:#1d1d1b;}</style><linearGradient id="Dégradé_sans_nom_35" x1="60.63" y1="91.99" x2="144.68" y2="91.99" gradientUnits="userSpaceOnUse"><stop offset="0.02" stop-color="#6567ab"/><stop offset="1" stop-color="#7f789a" stop-opacity="0"/></linearGradient></defs><path class="cls-1" d="M144.68,94.24v1.45c0,28.06-17.22,52.26-42.06,63.34,19.48-9.33,32.86-28.68,32.86-51h0a54.76,54.76,0,0,0-1.6-13.19C127.7,69.71,104.24,51,76.25,51c-8.58,0-15.54,6.7-15.54,15v59.39a13.79,13.79,0,0,1-.08-1.45v-84c0-8.25,7-14.95,15.55-14.95a61.46,61.46,0,0,1,10.13.83,74.17,74.17,0,0,1,15.18,4.62C126.93,41.24,144.68,65.74,144.68,94.24Z" transform="translate(-40.24 -23.95)"/><path class="cls-2" d="M135.48,108h0c0,22.35-13.38,41.7-32.86,51a74,74,0,0,1-16.75,5.19h0a76.63,76.63,0,0,1-13.73,1.24H63.69c-12.68,0-22.95-9.88-22.95-22.07V46.52c0-12.19,10.27-22.07,22.95-22.07h8.44a75.25,75.25,0,0,1,14.18,1.33A61.46,61.46,0,0,0,76.18,25c-8.59,0-15.55,6.7-15.55,15v84a13.79,13.79,0,0,0,.08,1.45,14.66,14.66,0,0,0,4.48,9.13,15.83,15.83,0,0,0,11,4.38,60.25,60.25,0,0,0,41.88-16.69,56.27,56.27,0,0,0,15.82-27.39A54.76,54.76,0,0,1,135.48,108Z" transform="translate(-40.24 -23.95)"/><path class="cls-3" d="M179.92,108.71V72.9H189a18.7,18.7,0,0,1,7.38,1.17,7.09,7.09,0,0,1,3.75,3.67,16,16,0,0,1,1.1,6.39v13a16.79,16.79,0,0,1-1.1,6.55,7.23,7.23,0,0,1-3.7,3.78,17.49,17.49,0,0,1-7.24,1.21Zm7.59-5.08h1.61a5.4,5.4,0,0,0,3-.64,2.83,2.83,0,0,0,1.12-1.91,17,17,0,0,0,.23-3.11V83.2a11.94,11.94,0,0,0-.3-3A2.56,2.56,0,0,0,192,78.56a6.05,6.05,0,0,0-2.92-.53h-1.56Z" transform="translate(-40.24 -23.95)"/><path class="cls-3" d="M206.35,108.71V72.9h7.54v35.81Z" transform="translate(-40.24 -23.95)"/><path class="cls-3" d="M229.11,109.24a10.4,10.4,0,0,1-6-1.52,8.31,8.31,0,0,1-3.15-4.34,20.42,20.42,0,0,1-.94-6.52v-12a20.44,20.44,0,0,1,1-6.63A8,8,0,0,1,223.38,74a12.36,12.36,0,0,1,6.55-1.5,13.15,13.15,0,0,1,6.32,1.28,7.4,7.4,0,0,1,3.34,3.63,14.06,14.06,0,0,1,1,5.57V85h-7.4V82.49A15.21,15.21,0,0,0,233,80a2.88,2.88,0,0,0-.85-1.71,3.07,3.07,0,0,0-2.14-.62,2.86,2.86,0,0,0-2.2.76,3.56,3.56,0,0,0-.87,1.92,15.2,15.2,0,0,0-.19,2.5V98.72a11.73,11.73,0,0,0,.28,2.7,3.4,3.4,0,0,0,1,1.85,3.84,3.84,0,0,0,4.39,0,3.71,3.71,0,0,0,1.08-1.92,11.58,11.58,0,0,0,.3-2.77v-3.8h-3.63V90.32h10.48v18.39h-5l-.45-3.23a6.68,6.68,0,0,1-2.21,2.7A6.6,6.6,0,0,1,229.11,109.24Z" transform="translate(-40.24 -23.95)"/><path class="cls-3" d="M246,108.71V72.9h7.54v35.81Z" transform="translate(-40.24 -23.95)"/><path class="cls-3" d="M262.71,108.71V78.34H257V72.9h19v5.44h-5.65v30.37Z" transform="translate(-40.24 -23.95)"/><path class="cls-3" d="M276.17,108.71l7.22-35.81h8.41L299,108.71h-7l-1.33-7.87h-5.89l-1.42,7.87Zm9.24-12.33h4.46l-2.25-14.46Z" transform="translate(-40.24 -23.95)"/><path class="cls-3" d="M302.46,108.71V72.9h7.59v30.86h8.73v4.95Z" transform="translate(-40.24 -23.95)"/><path class="cls-3" d="M343.23,109.2a12.19,12.19,0,0,1-5.74-1.22,7.83,7.83,0,0,1-3.47-3.67,16.53,16.53,0,0,1-1.36-6.25L339.19,97a17.64,17.64,0,0,0,.48,3.69,4.45,4.45,0,0,0,1.2,2.21,2.88,2.88,0,0,0,2,.73,2.15,2.15,0,0,0,2-.89,3.89,3.89,0,0,0,.53-2,6.21,6.21,0,0,0-1.13-3.78,18,18,0,0,0-3-3.07l-3.86-3.23a15.33,15.33,0,0,1-3.38-3.8,9.82,9.82,0,0,1-1.31-5.22,8.58,8.58,0,0,1,2.69-6.79,10.85,10.85,0,0,1,7.38-2.36,10.42,10.42,0,0,1,4.6.88,7,7,0,0,1,2.78,2.37,9.49,9.49,0,0,1,1.38,3.22,21.09,21.09,0,0,1,.48,3.48l-6.48.92a26,26,0,0,0-.3-2.87,3.89,3.89,0,0,0-.83-1.95,2.33,2.33,0,0,0-1.86-.7,2.18,2.18,0,0,0-2,1,3.65,3.65,0,0,0-.65,2.1,5.11,5.11,0,0,0,.9,3.12,15.12,15.12,0,0,0,2.46,2.54l3.77,3.18a21.17,21.17,0,0,1,4,4.44,10.83,10.83,0,0,1,1.67,6.17,8.82,8.82,0,0,1-1.19,4.56,8.5,8.5,0,0,1-3.33,3.18A10.56,10.56,0,0,1,343.23,109.2Z" transform="translate(-40.24 -23.95)"/><path class="cls-3" d="M367.18,109.2a12.61,12.61,0,0,1-6.48-1.42,7.94,7.94,0,0,1-3.42-4,17.25,17.25,0,0,1-1-6.3V84.09a17,17,0,0,1,1-6.28,7.73,7.73,0,0,1,3.42-4,16.07,16.07,0,0,1,13,0,7.85,7.85,0,0,1,3.45,4,16.85,16.85,0,0,1,1,6.26V97.44a17.25,17.25,0,0,1-1,6.3,7.91,7.91,0,0,1-3.45,4A12.86,12.86,0,0,1,367.18,109.2Zm0-5.26a3.13,3.13,0,0,0,2.16-.64,3.19,3.19,0,0,0,.92-1.73,10.68,10.68,0,0,0,.23-2.32V82.32a10.43,10.43,0,0,0-.23-2.3,2.75,2.75,0,0,0-3.08-2.35,2.94,2.94,0,0,0-2.07.65,3.17,3.17,0,0,0-.92,1.7,11.07,11.07,0,0,0-.23,2.3V99.25a12.13,12.13,0,0,0,.21,2.32,3.11,3.11,0,0,0,.9,1.73A3,3,0,0,0,367.18,103.94Z" transform="translate(-40.24 -23.95)"/><path class="cls-3" d="M383.27,108.71V72.9h7.58v30.86h8.74v4.95Z" transform="translate(-40.24 -23.95)"/><path class="cls-3" d="M413.06,109.2a13,13,0,0,1-6.58-1.39,7.42,7.42,0,0,1-3.28-4,19,19,0,0,1-.95-6.39V72.9h7.5V98.41A16.21,16.21,0,0,0,410,101a4.07,4.07,0,0,0,.92,2.08,3.47,3.47,0,0,0,4.41,0,3.82,3.82,0,0,0,.9-2.08,18.86,18.86,0,0,0,.18-2.61V72.9h7.5V97.39a19.23,19.23,0,0,1-.94,6.39,7.48,7.48,0,0,1-3.29,4A13,13,0,0,1,413.06,109.2Z" transform="translate(-40.24 -23.95)"/><path class="cls-3" d="M432.64,108.71V78.34h-5.75V72.9h19v5.44h-5.65v30.37Z" transform="translate(-40.24 -23.95)"/><path class="cls-3" d="M449.37,108.71V72.9h7.53v35.81Z" transform="translate(-40.24 -23.95)"/><path class="cls-3" d="M473,109.2a12.61,12.61,0,0,1-6.48-1.42,7.94,7.94,0,0,1-3.42-4,17.25,17.25,0,0,1-1-6.3V84.09a17,17,0,0,1,1-6.28,7.73,7.73,0,0,1,3.42-4,16.07,16.07,0,0,1,13,0,7.85,7.85,0,0,1,3.45,4,16.85,16.85,0,0,1,1,6.26V97.44a17.25,17.25,0,0,1-1,6.3,7.91,7.91,0,0,1-3.45,4A12.86,12.86,0,0,1,473,109.2Zm0-5.26a3.13,3.13,0,0,0,2.16-.64,3.19,3.19,0,0,0,.92-1.73,11.33,11.33,0,0,0,.23-2.32V82.32a11.07,11.07,0,0,0-.23-2.3A2.75,2.75,0,0,0,473,77.67a2.94,2.94,0,0,0-2.07.65A3.17,3.17,0,0,0,470,80a11.07,11.07,0,0,0-.23,2.3V99.25a12.13,12.13,0,0,0,.21,2.32,3.11,3.11,0,0,0,.9,1.73A3,3,0,0,0,473,103.94Z" transform="translate(-40.24 -23.95)"/><path class="cls-3" d="M489.08,108.71V72.9h5.29l8.27,18.66V72.9h6.25v35.81h-5.06l-8.27-19.8v19.8Z" transform="translate(-40.24 -23.95)"/><path class="cls-4" d="M180.27,135.24V120.05H177.4v-2.72h9.51v2.72h-2.83v15.19Z" transform="translate(-40.24 -23.95)"/><path class="cls-4" d="M188.4,135.24V117.33h3.45v6.3a5.73,5.73,0,0,1,1.54-1,4.41,4.41,0,0,1,1.75-.35,2.09,2.09,0,0,1,1.32.4,2.36,2.36,0,0,1,.77,1,4,4,0,0,1,.25,1.47v10.08H194v-9.53a1.51,1.51,0,0,0-.16-.79.69.69,0,0,0-.64-.27,1.76,1.76,0,0,0-.63.14,4.74,4.74,0,0,0-.73.39v10.06Z" transform="translate(-40.24 -23.95)"/><path class="cls-4" d="M203.94,135.46a5.21,5.21,0,0,1-2.46-.52,3.37,3.37,0,0,1-1.49-1.52,5.3,5.3,0,0,1-.51-2.42v-4.29a5.29,5.29,0,0,1,.51-2.45,3.42,3.42,0,0,1,1.51-1.5,5.26,5.26,0,0,1,2.44-.52,5,5,0,0,1,2.46.53,3.19,3.19,0,0,1,1.39,1.55,6.09,6.09,0,0,1,.45,2.47V129h-5.33v2.47a2.91,2.91,0,0,0,.12.91,1,1,0,0,0,.36.5,1.09,1.09,0,0,0,.57.14,1.15,1.15,0,0,0,.57-.14.83.83,0,0,0,.35-.46,2.23,2.23,0,0,0,.12-.81v-1.22h3.21v1.06a3.79,3.79,0,0,1-1.1,3A4.49,4.49,0,0,1,203.94,135.46Zm-1-8H205v-1.26a2.8,2.8,0,0,0-.12-.9.84.84,0,0,0-.35-.49,1.25,1.25,0,0,0-.61-.14,1,1,0,0,0-.57.15,1.08,1.08,0,0,0-.33.55,3.87,3.87,0,0,0-.11,1.09Z" transform="translate(-40.24 -23.95)"/><path class="cls-4" d="M216.28,135.24V117.33H221a12.26,12.26,0,0,1,2.26.2,5.32,5.32,0,0,1,1.82.71,3.32,3.32,0,0,1,1.22,1.4,5.56,5.56,0,0,1,.43,2.34,4.62,4.62,0,0,1-.33,1.84,2.82,2.82,0,0,1-.92,1.21,3.37,3.37,0,0,1-1.47.59,4,4,0,0,1,1.82.71,3.36,3.36,0,0,1,1.1,1.46,5.7,5.7,0,0,1,.37,2.19,6.85,6.85,0,0,1-.36,2.34,4,4,0,0,1-1,1.64,4.49,4.49,0,0,1-1.7,1,8,8,0,0,1-2.35.32Zm3.79-10.68h1a3.27,3.27,0,0,0,1.49-.27,1.49,1.49,0,0,0,.7-.84,4.3,4.3,0,0,0,.2-1.39,2.62,2.62,0,0,0-.29-1.31,1.65,1.65,0,0,0-.87-.72,4.26,4.26,0,0,0-1.49-.22h-.69Zm0,8.11h1.06a2.38,2.38,0,0,0,2-.68,3.29,3.29,0,0,0,.54-2.06,4.61,4.61,0,0,0-.26-1.69,1.77,1.77,0,0,0-.81-.93,3.38,3.38,0,0,0-1.51-.29h-1Z" transform="translate(-40.24 -23.95)"/><path class="cls-4" d="M233.45,135.46a5.21,5.21,0,0,1-2.46-.52,3.37,3.37,0,0,1-1.49-1.52A5.3,5.3,0,0,1,229,131v-4.29a5.29,5.29,0,0,1,.51-2.45,3.42,3.42,0,0,1,1.51-1.5,5.26,5.26,0,0,1,2.44-.52,5,5,0,0,1,2.46.53,3.19,3.19,0,0,1,1.39,1.55,6.09,6.09,0,0,1,.45,2.47V129h-5.33v2.47a2.91,2.91,0,0,0,.12.91.93.93,0,0,0,.36.5,1.09,1.09,0,0,0,.57.14,1.17,1.17,0,0,0,.57-.14.88.88,0,0,0,.35-.46,2.23,2.23,0,0,0,.12-.81v-1.22h3.21v1.06a3.79,3.79,0,0,1-1.1,3A4.49,4.49,0,0,1,233.45,135.46Zm-1-8h2.09v-1.26a2.8,2.8,0,0,0-.12-.9.88.88,0,0,0-.35-.49,1.28,1.28,0,0,0-.61-.14,1,1,0,0,0-.57.15,1.08,1.08,0,0,0-.33.55,3.87,3.87,0,0,0-.11,1.09Z" transform="translate(-40.24 -23.95)"/><path class="cls-4" d="M243.7,135.46a4.7,4.7,0,0,1-2.84-.81,5.18,5.18,0,0,1-1.74-2.48l2.44-1a4.29,4.29,0,0,0,.83,1.45,1.48,1.48,0,0,0,1.12.52,1.08,1.08,0,0,0,.73-.21.73.73,0,0,0,.24-.58,1.37,1.37,0,0,0-.37-1,9.56,9.56,0,0,0-1.31-1.18l-1.24-1a9.52,9.52,0,0,1-1.55-1.58,3.21,3.21,0,0,1-.59-2,3.07,3.07,0,0,1,.54-1.81,3.66,3.66,0,0,1,1.45-1.21,4.5,4.5,0,0,1,2-.43,3.94,3.94,0,0,1,2.67.9,4.44,4.44,0,0,1,1.42,2.42l-2.25,1a5.7,5.7,0,0,0-.37-.92,2.33,2.33,0,0,0-.59-.72,1.23,1.23,0,0,0-.79-.28.93.93,0,0,0-.67.24.81.81,0,0,0-.25.62,1.29,1.29,0,0,0,.42.84,14.74,14.74,0,0,0,1.19,1.06l1.24,1.06c.37.31.73.64,1.08,1a5.05,5.05,0,0,1,.87,1.15,3,3,0,0,1,.35,1.45,3.21,3.21,0,0,1-.55,1.88,3.43,3.43,0,0,1-1.46,1.17A4.85,4.85,0,0,1,243.7,135.46Z" transform="translate(-40.24 -23.95)"/><path class="cls-4" d="M253.31,135.37a4.61,4.61,0,0,1-2.16-.41,2.16,2.16,0,0,1-1.09-1.18,5.46,5.46,0,0,1-.29-1.88v-7.25h-1.31v-2.19h1.31v-3.87h3.51v3.87h1.93v2.19h-1.93v6.94a1.06,1.06,0,0,0,.31.85,1.34,1.34,0,0,0,.86.26,3,3,0,0,0,.53,0l.46,0v2.61l-.92.1C254.12,135.35,253.72,135.37,253.31,135.37Z" transform="translate(-40.24 -23.95)"/><path class="cls-4" d="M268.38,135.48a6.39,6.39,0,0,1-3.24-.7,4,4,0,0,1-1.71-2,8.45,8.45,0,0,1-.52-3.15v-6.67a8.39,8.39,0,0,1,.52-3.14,3.8,3.8,0,0,1,1.71-2,8,8,0,0,1,6.52,0,3.9,3.9,0,0,1,1.72,2,8.3,8.3,0,0,1,.52,3.13v6.67a8.45,8.45,0,0,1-.52,3.15,4,4,0,0,1-1.72,2A6.52,6.52,0,0,1,268.38,135.48Zm0-2.63a1.52,1.52,0,0,0,1.08-.32,1.6,1.6,0,0,0,.46-.86,5.36,5.36,0,0,0,.12-1.16V122a5.27,5.27,0,0,0-.12-1.15,1.6,1.6,0,0,0-.46-.85,1.57,1.57,0,0,0-1.08-.32,1.48,1.48,0,0,0-1,.32,1.54,1.54,0,0,0-.46.85,5.27,5.27,0,0,0-.12,1.15v8.47a6.09,6.09,0,0,0,.11,1.16,1.51,1.51,0,0,0,.44.86A1.49,1.49,0,0,0,268.38,132.85Z" transform="translate(-40.24 -23.95)"/><path class="cls-4" d="M276.75,135.24v-10.5h-1.34v-2.28h1.34v-.88a7.28,7.28,0,0,1,.24-2,2.22,2.22,0,0,1,1-1.31,4.36,4.36,0,0,1,2.26-.46l.86,0,.91.09v2.48l-.41-.08a3,3,0,0,0-.42,0,.88.88,0,0,0-.71.27,1.34,1.34,0,0,0-.23.88v1H282v2.28h-1.77v10.5Z" transform="translate(-40.24 -23.95)"/><path class="cls-4" d="M291.8,135.24v-7.1l-3.63-10.81h3.56l2,6.3,1.86-6.3H299l-3.59,10.81v7.1Z" transform="translate(-40.24 -23.95)"/><path class="cls-4" d="M304.28,135.46a5.53,5.53,0,0,1-2.44-.5,3.34,3.34,0,0,1-1.52-1.45,4.82,4.82,0,0,1-.52-2.36v-4.6a4.82,4.82,0,0,1,.52-2.36,3.34,3.34,0,0,1,1.52-1.45,6.2,6.2,0,0,1,4.88,0,3.49,3.49,0,0,1,1.54,1.45,4.82,4.82,0,0,1,.52,2.36v4.6a4.82,4.82,0,0,1-.52,2.36,3.49,3.49,0,0,1-1.54,1.45A5.53,5.53,0,0,1,304.28,135.46Zm0-2.25A.89.89,0,0,0,305,133a1.16,1.16,0,0,0,.3-.64,6.34,6.34,0,0,0,.07-.94v-5.06a6.37,6.37,0,0,0-.07-1,1.23,1.23,0,0,0-.3-.64.89.89,0,0,0-.67-.24.86.86,0,0,0-.66.24,1.17,1.17,0,0,0-.31.64,4.43,4.43,0,0,0-.08,1v5.06a4.39,4.39,0,0,0,.08.94,1.11,1.11,0,0,0,.31.64A.86.86,0,0,0,304.3,133.21Z" transform="translate(-40.24 -23.95)"/><path class="cls-4" d="M313.15,135.46a2.15,2.15,0,0,1-1.34-.4A2.31,2.31,0,0,1,311,134a4,4,0,0,1-.25-1.46V122.46h3.47v9.6a1.46,1.46,0,0,0,.18.8.75.75,0,0,0,.67.28,1.53,1.53,0,0,0,.59-.14,6.85,6.85,0,0,0,.63-.35V122.46h3.47v12.78H316.3v-1.19a6,6,0,0,1-1.48,1A3.76,3.76,0,0,1,313.15,135.46Z" transform="translate(-40.24 -23.95)"/><path class="cls-4" d="M322.21,135.24V122.46h3.46v2.06a6.43,6.43,0,0,1,1.33-1.67,2.34,2.34,0,0,1,1.55-.54h.28a1,1,0,0,1,.25.05v3.36a3.62,3.62,0,0,0-.58-.18,2.39,2.39,0,0,0-.66-.08,2.3,2.3,0,0,0-1.18.32,3.68,3.68,0,0,0-1,.92v8.53Z" transform="translate(-40.24 -23.95)"/><path class="cls-4" d="M341.44,135.48a6,6,0,0,1-2.87-.61,3.87,3.87,0,0,1-1.74-1.83,8.21,8.21,0,0,1-.67-3.13l3.26-.53a8.87,8.87,0,0,0,.24,1.85,2.19,2.19,0,0,0,.6,1.1,1.41,1.41,0,0,0,1,.37,1.07,1.07,0,0,0,1-.45,2,2,0,0,0,.26-1,3.14,3.14,0,0,0-.56-1.89,9.57,9.57,0,0,0-1.48-1.54l-1.94-1.61a7.71,7.71,0,0,1-1.68-1.9,4.86,4.86,0,0,1-.66-2.61,4.28,4.28,0,0,1,1.35-3.4,5.4,5.4,0,0,1,3.68-1.18,5.27,5.27,0,0,1,2.3.44,3.47,3.47,0,0,1,1.39,1.19,4.71,4.71,0,0,1,.69,1.61,10.4,10.4,0,0,1,.24,1.74l-3.24.46a13.08,13.08,0,0,0-.15-1.44,1.92,1.92,0,0,0-.41-1,1.2,1.2,0,0,0-.93-.35,1.13,1.13,0,0,0-1,.47,1.88,1.88,0,0,0-.32,1,2.53,2.53,0,0,0,.45,1.56,7.58,7.58,0,0,0,1.23,1.27l1.88,1.59a10.39,10.39,0,0,1,2,2.23,5.39,5.39,0,0,1,.84,3.08,4.41,4.41,0,0,1-.6,2.28,4.24,4.24,0,0,1-1.66,1.59A5.27,5.27,0,0,1,341.44,135.48Z" transform="translate(-40.24 -23.95)"/><path class="cls-4" d="M352.22,135.46a5.53,5.53,0,0,1-2.44-.5,3.34,3.34,0,0,1-1.52-1.45,4.82,4.82,0,0,1-.52-2.36v-4.6a4.82,4.82,0,0,1,.52-2.36,3.34,3.34,0,0,1,1.52-1.45,6.2,6.2,0,0,1,4.88,0,3.49,3.49,0,0,1,1.54,1.45,4.82,4.82,0,0,1,.52,2.36v4.6a4.82,4.82,0,0,1-.52,2.36,3.49,3.49,0,0,1-1.54,1.45A5.53,5.53,0,0,1,352.22,135.46Zm0-2.25a.89.89,0,0,0,.67-.24,1.16,1.16,0,0,0,.3-.64,6.34,6.34,0,0,0,.07-.94v-5.06a6.37,6.37,0,0,0-.07-1,1.23,1.23,0,0,0-.3-.64.89.89,0,0,0-.67-.24.86.86,0,0,0-.66.24,1.17,1.17,0,0,0-.31.64,4.43,4.43,0,0,0-.08,1v5.06a4.39,4.39,0,0,0,.08.94,1.11,1.11,0,0,0,.31.64A.86.86,0,0,0,352.24,133.21Z" transform="translate(-40.24 -23.95)"/><path class="cls-4" d="M359,135.24V117.33h3.47v17.91Z" transform="translate(-40.24 -23.95)"/><path class="cls-4" d="M367.16,135.46a2.18,2.18,0,0,1-1.35-.4A2.29,2.29,0,0,1,365,134a4,4,0,0,1-.25-1.46V122.46h3.47v9.6a1.46,1.46,0,0,0,.18.8.74.74,0,0,0,.67.28,1.45,1.45,0,0,0,.58-.14,5.86,5.86,0,0,0,.64-.35V122.46h3.47v12.78h-3.47v-1.19a6.08,6.08,0,0,1-1.49,1A3.68,3.68,0,0,1,367.16,135.46Z" transform="translate(-40.24 -23.95)"/><path class="cls-4" d="M380.14,135.37A4.61,4.61,0,0,1,378,135a2.18,2.18,0,0,1-1.08-1.18,5.22,5.22,0,0,1-.3-1.88v-7.25h-1.31v-2.19h1.31v-3.87h3.52v3.87h1.93v2.19h-1.93v6.94a1,1,0,0,0,.31.85,1.32,1.32,0,0,0,.86.26,3,3,0,0,0,.53,0l.46,0v2.61l-.92.1C381,135.35,380.56,135.37,380.14,135.37Z" transform="translate(-40.24 -23.95)"/><path class="cls-4" d="M384.1,120.36v-2.5h3.49v2.5Zm0,14.88V122.46h3.47v12.78Z" transform="translate(-40.24 -23.95)"/><path class="cls-4" d="M394.18,135.46a5.45,5.45,0,0,1-2.43-.5,3.31,3.31,0,0,1-1.53-1.45,4.93,4.93,0,0,1-.52-2.36v-4.6a4.93,4.93,0,0,1,.52-2.36,3.31,3.31,0,0,1,1.53-1.45,6.18,6.18,0,0,1,4.87,0,3.43,3.43,0,0,1,1.54,1.45,4.82,4.82,0,0,1,.53,2.36v4.6a4.82,4.82,0,0,1-.53,2.36,3.43,3.43,0,0,1-1.54,1.45A5.5,5.5,0,0,1,394.18,135.46Zm0-2.25a.86.86,0,0,0,.66-.24,1,1,0,0,0,.3-.64,5.22,5.22,0,0,0,.07-.94v-5.06a5.27,5.27,0,0,0-.07-1,1.1,1.1,0,0,0-.3-.64.86.86,0,0,0-.66-.24.89.89,0,0,0-.67.24,1.24,1.24,0,0,0-.31.64,5.19,5.19,0,0,0-.08,1v5.06a5.15,5.15,0,0,0,.08.94,1.17,1.17,0,0,0,.31.64A.89.89,0,0,0,394.21,133.21Z" transform="translate(-40.24 -23.95)"/><path class="cls-4" d="M400.8,135.24V122.46h3.47v1.28a6.63,6.63,0,0,1,1.51-1.09,3.67,3.67,0,0,1,1.69-.41,2.1,2.1,0,0,1,1.34.4,2.29,2.29,0,0,1,.77,1,4,4,0,0,1,.26,1.47v10.08h-3.45v-9.53a1.5,1.5,0,0,0-.17-.79.74.74,0,0,0-.66-.27,1.66,1.66,0,0,0-.61.14,4.35,4.35,0,0,0-.68.39v10.06Z" transform="translate(-40.24 -23.95)"/><path class="cls-4" d="M416,135.46a4.69,4.69,0,0,1-2.83-.81,5,5,0,0,1-1.74-2.48l2.44-1a4.29,4.29,0,0,0,.82,1.45,1.5,1.5,0,0,0,1.13.52,1.11,1.11,0,0,0,.73-.21.73.73,0,0,0,.24-.58,1.42,1.42,0,0,0-.37-1,10.22,10.22,0,0,0-1.31-1.18l-1.24-1a9.14,9.14,0,0,1-1.55-1.58,3.21,3.21,0,0,1-.59-2,3.07,3.07,0,0,1,.54-1.81,3.59,3.59,0,0,1,1.45-1.21,4.46,4.46,0,0,1,2-.43,4,4,0,0,1,2.68.9,4.37,4.37,0,0,1,1.41,2.42l-2.25,1a4.32,4.32,0,0,0-.37-.92,2.3,2.3,0,0,0-.58-.72,1.24,1.24,0,0,0-.8-.28.92.92,0,0,0-.66.24.81.81,0,0,0-.25.62,1.29,1.29,0,0,0,.42.84,14.34,14.34,0,0,0,1.18,1.06l1.25,1.06c.36.31.72.64,1.08,1a5.05,5.05,0,0,1,.87,1.15A3,3,0,0,1,420,132a3.14,3.14,0,0,1-.55,1.88,3.37,3.37,0,0,1-1.46,1.17A4.81,4.81,0,0,1,416,135.46Z" transform="translate(-40.24 -23.95)"/></svg>